# xmcd CD database file
#
# Track frame offsets:
#	150
#	27267
#	61487
#	95255
#	116097
#	143340
#	178922
#	203472
#	225345
#	251105
#	267445
#
# Disc length: 4058 seconds
#
# Revision: 3
# Processed by: cddbd v1.5.2PL0 Copyright (c) Steve Scherf et al.
# Submitted via: CDex 1.51
#
DISCID=910fd80b
DTITLE=John Lee Hooker - The Cream
DYEAR=1998
DGENRE=Blues
TTITLE0=Hey Hey
TTITLE1=Rock Steady
TTITLE2=Tupelo
TTITLE3=You Know It Aint Right
TTITLE4=She's Gone
TTITLE5=T.B. Sheets
TTITLE6=Sugar Mama
TTITLE7=One Room Country Shack
TTITLE8=Drug Store Woman
TTITLE9=I Want You To Roll Me
TTITLE10=Bar Room Drinking
EXTD=YEAR: 1998
EXTT0=
EXTT1=
EXTT2=
EXTT3=
EXTT4=
EXTT5=
EXTT6=
EXTT7=
EXTT8=
EXTT9=
EXTT10=
PLAYORDER=
